Coordinates
version=1
nRows=43
nColumns=12
inDegrees=yes

Units are S.I. units (second, meters, Newtons, ...)
Angles are in degrees

endheader
time	SC_y	SC_z	SC_x	AC_y	AC_z	AC_x	GH_y	GH_z	GH_yy	EL_x	PS_y
       0.0              -39.57           22.1          71.33          46.64          6.184           3.59         -152.6          78.97          141.1          134.4          13.22
   0.02643              -39.57           22.1          71.33          46.64          6.183          3.589         -152.6          78.95          141.1          134.4          13.23
   0.05287              -39.57          22.11          71.33          46.64          6.182          3.587         -152.6          78.94          141.1          134.4          13.25
    0.0793              -39.57          22.11          71.33          46.65          6.181          3.585         -152.6          78.93          141.0          134.4          13.27
    0.1057              -39.56          22.11          71.33          46.65           6.18          3.582         -152.6          78.91          141.0          134.4          13.29
    0.1322              -39.56          22.11          71.33          46.65          6.179           3.58         -152.6          78.89          140.9          134.4          13.31
    0.1586              -39.56          22.11          71.34          46.66          6.177          3.577         -152.6          78.88          140.9          134.4          13.33
     0.185              -39.56          22.11          71.34          46.66          6.176          3.575         -152.6          78.86          140.8          134.4          13.35
    0.2115              -39.55          22.11          71.34          46.67          6.175          3.572         -152.6          78.84          140.7          134.4          13.38
    0.2379              -39.55          22.11          71.34          46.67          6.173          3.569         -152.6          78.82          140.7          134.4          13.41
    0.2643              -39.54          22.12          71.34          46.67          6.171          3.565         -152.6           78.8          140.6          134.4          13.43
    0.2908              -39.54          22.12          71.35          46.68           6.17          3.562         -152.6          78.77          140.5          134.4          13.47
    0.3172              -39.53          22.12          71.35          46.69          6.168          3.558         -152.6          78.75          140.4          134.3           13.5
    0.3436              -39.53          22.12          71.35          46.69          6.165          3.554         -152.6          78.72          140.4          134.3          13.54
    0.3701              -39.52          22.12          71.36           46.7          6.163          3.549         -152.6          78.69          140.3          134.3          13.57
    0.3965              -39.52          22.13          71.36          46.71          6.161          3.544         -152.6          78.66          140.2          134.3          13.62
    0.4229              -39.51          22.13          71.36          46.71          6.158          3.539         -152.6          78.62          140.0          134.3          13.66
    0.4494               -39.5          22.13          71.37          46.72          6.155          3.533         -152.5          78.58          139.9          134.3          13.71
    0.4758               -39.5          22.13          71.37          46.73          6.152          3.527         -152.5          78.54          139.8          134.3          13.77
    0.5022              -39.49          22.14          71.38          46.74          6.149           3.52         -152.5          78.49          139.6          134.2          13.83
    0.5287              -39.48          22.14          71.38          46.75          6.145          3.512         -152.5          78.44          139.5          134.2          13.89
    0.5551              -39.47          22.14          71.39          46.77          6.141          3.504         -152.5          78.39          139.3          134.2          13.97
    0.5815              -39.46          22.15           71.4          46.78          6.136          3.494         -152.5          78.32          139.1          134.2          14.05
     0.608              -39.45          22.15           71.4          46.79          6.131          3.484         -152.5          78.25          138.9          134.1          14.14
    0.6344              -39.43          22.16          71.41          46.81          6.125          3.473         -152.5          78.18          138.6          134.1          14.24
    0.6608              -39.42          22.16          71.42          46.83          6.119           3.46         -152.5          78.09          138.3          134.1          14.35
    0.6873               -39.4          22.17          71.43          46.85          6.112          3.445         -152.4           78.0          138.0          134.0          14.47
    0.7137              -39.38          22.18          71.44          46.87          6.104          3.429         -152.4          77.89          137.7          134.0          14.61
    0.7401              -39.36          22.19          71.46           46.9          6.095          3.411         -152.4          77.77          137.3          134.0          14.77
    0.7666              -39.33           22.2          71.47          46.93          6.084           3.39         -152.4          77.63          136.9          133.9          14.94
     0.793               -39.3          22.21          71.49          46.97          6.073          3.367         -152.3          77.47          136.3          133.8          15.15
    0.8194              -39.27          22.22          71.51          47.01          6.059           3.34         -152.3          77.29          135.8          133.8          15.38
    0.8459              -39.23          22.23          71.53          47.05          6.044          3.308         -152.3          77.08          135.1          133.7          15.65
    0.8723              -39.19          22.25          71.56           47.1          6.026          3.272         -152.2          76.84          134.3          133.6          15.97
    0.8987              -39.14          22.27          71.59          47.17          6.004           3.23         -152.2          76.56          133.4          133.5          16.33
    0.9252              -39.08          22.29          71.63          47.24          5.979           3.18         -152.1          76.22          132.3          133.3          16.77
    0.9516              -39.01          22.32          71.67          47.33           5.95           3.12         -152.0          75.83          131.0          133.2          17.28
     0.978              -38.92          22.35          71.72          47.43          5.914          3.049         -151.9          75.35          129.5          133.0           17.9
     1.004              -38.82          22.39          71.78          47.56          5.871          2.962         -151.8          74.77          127.7          132.8          18.64
     1.031              -38.69          22.44          71.86          47.71          5.819          2.857         -151.7          74.07          125.4          132.5          19.55
     1.057              -38.53           22.5          71.96          47.91          5.754          2.727         -151.5           73.2          122.6          132.1          20.68
     1.084              -38.34          22.57          72.07          48.14          5.674          2.564         -151.3          72.12          119.1          131.7          22.08
      1.11              -38.09          22.66          72.22          48.44          5.572           2.36         -151.1          70.75          114.7          131.2          23.85
